<svg id="SvgjsSvg1017" width="288" height="288" xmlns="http://www.w3.org/2000/svg" version="1.1" xmlns:xlink="http://www.w3.org/1999/xlink" xmlns:svgjs="http://svgjs.com/svgjs"><defs id="SvgjsDefs1018"></defs><g id="SvgjsG1019"><svg xmlns="http://www.w3.org/2000/svg" viewBox="0 0 32 32" width="288" height="288"><g data-name="Layer 51" fill="#ffc9b9" class="color000 svgShape"><path d="M16 2a14 14 0 1 0 14 14A14 14 0 0 0 16 2Zm0 26a12 12 0 1 1 12-12 12 12 0 0 1-12 12Z" fill="#ffc9b9" class="color000 svgShape"></path><path d="M22.71 9.29a1 1 0 0 0-1.42 0L16 14.59l-5.29-5.3a1 1 0 0 0-1.42 1.42l5.3 5.29-5.3 5.29a1 1 0 0 0 0 1.42 1 1 0 0 0 1.42 0l5.29-5.3 5.29 5.3a1 1 0 0 0 1.42 0 1 1 0 0 0 0-1.42L17.41 16l5.3-5.29a1 1 0 0 0 0-1.42Z" fill="#ffc9b9" class="color000 svgShape"></path></g></svg></g></svg>